# Blender v2.78 (sub 0) OBJ File: ''
# www.blender.org
v 1.000000 -0.077839 -0.948000
v 0.948000 -0.082330 -0.948000
v 0.948000 -0.077839 -1.000000
v 0.998237 -0.080459 -0.948000
v 0.998238 -0.077839 -0.978332
v 0.995959 -0.080509 -0.978914
v 0.948000 -0.082177 -0.978334
v 0.978332 -0.082177 -0.948000
v 0.978914 -0.081981 -0.978916
v 0.978334 -0.077839 -0.998237
v 0.948000 -0.080458 -0.998238
v 0.978916 -0.080509 -0.995959
v 1.000000 -0.077839 0.948000
v 0.948000 -0.077839 1.000000
v 0.948000 -0.082330 0.948000
v 0.998237 -0.077839 0.978334
v 0.998238 -0.080458 0.948000
v 0.995959 -0.080509 0.978916
v 0.948000 -0.080459 0.998237
v 0.978332 -0.077839 0.998238
v 0.978914 -0.080509 0.995959
v 0.978334 -0.082177 0.948000
v 0.948000 -0.082177 0.978332
v 0.978916 -0.081981 0.978914
v -0.948000 -0.077839 1.000000
v -1.000000 -0.077839 0.948000
v -0.948000 -0.082330 0.948000
v -0.978335 -0.077839 0.998237
v -0.948000 -0.080458 0.998238
v -0.978916 -0.080509 0.995959
v -0.998238 -0.080459 0.948000
v -0.998238 -0.077839 0.978331
v -0.995959 -0.080509 0.978914
v -0.948000 -0.082177 0.978334
v -0.978332 -0.082177 0.948000
v -0.978914 -0.081981 0.978916
v -0.948000 -0.077839 -1.000000
v -0.948000 -0.082330 -0.948000
v -1.000000 -0.077839 -0.948000
v -0.948000 -0.080459 -0.998238
v -0.978331 -0.077839 -0.998239
v -0.978914 -0.080509 -0.995959
v -0.978334 -0.082177 -0.948000
v -0.948000 -0.082177 -0.978332
v -0.978916 -0.081981 -0.978915
v -0.998237 -0.077839 -0.978335
v -0.998238 -0.080458 -0.948000
v -0.995959 -0.080509 -0.978916
v 0.802914 0.003612 -0.750127
v 0.750128 0.003612 -0.802913
v 0.741839 -0.000809 -0.741838
v 0.798898 0.003229 -0.779189
v 0.794745 0.001134 -0.747559
v 0.790799 0.000952 -0.775832
v 0.747559 0.001134 -0.794743
v 0.779188 0.003229 -0.798898
v 0.775831 0.000952 -0.790798
v 0.771524 -0.000547 -0.744407
v 0.744407 -0.000547 -0.771521
v 0.773239 -0.000268 -0.773237
v 0.802913 0.003612 0.750128
v 0.741838 -0.000809 0.741839
v 0.750127 0.003612 0.802914
v 0.794743 0.001134 0.747559
v 0.798898 0.003229 0.779188
v 0.790798 0.000952 0.775831
v 0.744407 -0.000547 0.771524
v 0.771521 -0.000547 0.744407
v 0.773237 -0.000268 0.773239
v 0.779189 0.003229 0.798898
v 0.747559 0.001134 0.794746
v 0.775832 0.000952 0.790799
v -0.750128 0.003612 0.802914
v -0.741839 -0.000809 0.741838
v -0.802914 0.003612 0.750128
v -0.747559 0.001134 0.794743
v -0.779188 0.003229 0.798899
v -0.775831 0.000952 0.790798
v -0.771524 -0.000547 0.744407
v -0.744407 -0.000547 0.771521
v -0.773239 -0.000268 0.773237
v -0.798898 0.003229 0.779189
v -0.794745 0.001134 0.747559
v -0.790799 0.000952 0.775832
v -0.750128 0.003612 -0.802914
v -0.802914 0.003612 -0.750128
v -0.741838 -0.000809 -0.741838
v -0.779190 0.003229 -0.798898
v -0.747559 0.001134 -0.794745
v -0.775833 0.000952 -0.790799
v -0.794744 0.001134 -0.747559
v -0.798899 0.003229 -0.779187
v -0.790799 0.000952 -0.775831
v -0.744407 -0.000547 -0.771524
v -0.771521 -0.000547 -0.744407
v -0.773237 -0.000268 -0.773239
v 0.948000 0.036947 -0.999999
v 0.874461 0.041437 -0.948000
v 0.948000 0.041437 -0.874460
v 1.000000 0.036947 -0.947999
v 0.925421 0.039445 -0.996998
v 0.977462 0.036947 -0.996797
v 0.966967 0.039557 -0.991126
v 0.916130 0.041437 -0.943468
v 0.897039 0.041178 -0.976929
v 0.945955 0.041110 -0.972594
v 0.976932 0.041178 -0.897040
v 0.943471 0.041437 -0.916125
v 0.972598 0.041110 -0.945953
v 0.996796 0.036947 -0.977463
v 0.997001 0.039445 -0.925422
v 0.991127 0.039556 -0.966970
v 0.947999 0.036947 1.000001
v 0.999999 0.036947 0.948001
v 0.947999 0.041437 0.874462
v 0.874460 0.041437 0.948001
v 0.977463 0.036947 0.996796
v 0.925422 0.039445 0.997001
v 0.966970 0.039556 0.991127
v 0.996998 0.039445 0.925421
v 0.996797 0.036947 0.977462
v 0.991126 0.039557 0.966967
v 0.943468 0.041437 0.916130
v 0.976929 0.041178 0.897039
v 0.972594 0.041110 0.945955
v 0.897040 0.041178 0.976932
v 0.916125 0.041437 0.943471
v 0.945953 0.041110 0.972598
v -1.000000 0.036947 -0.948000
v -0.948000 0.041437 -0.874461
v -0.874461 0.041437 -0.948000
v -0.948000 0.036947 -1.000000
v -0.996999 0.039445 -0.925420
v -0.996797 0.036947 -0.977462
v -0.991126 0.039557 -0.966967
v -0.943469 0.041437 -0.916129
v -0.976929 0.041178 -0.897038
v -0.972594 0.041110 -0.945954
v -0.897041 0.041178 -0.976932
v -0.916126 0.041437 -0.943471
v -0.945954 0.041110 -0.972597
v -0.977464 0.036947 -0.996796
v -0.925423 0.039445 -0.997000
v -0.966970 0.039556 -0.991126
v -1.000000 0.036947 0.948000
v -0.948000 0.036947 1.000000
v -0.874461 0.041437 0.948000
v -0.948000 0.041437 0.874461
v -0.996796 0.036947 0.977464
v -0.997000 0.039445 0.925422
v -0.991127 0.039556 0.966970
v -0.925421 0.039445 0.996999
v -0.977462 0.036947 0.996797
v -0.966967 0.039557 0.991126
v -0.916130 0.041437 0.943468
v -0.897039 0.041178 0.976929
v -0.945954 0.041110 0.972594
v -0.976932 0.041178 0.897040
v -0.943471 0.041437 0.916126
v -0.972598 0.041110 0.945953
v 0.871481 0.037016 -0.818694
v 0.932556 0.041437 -0.859016
v 0.859017 0.041437 -0.932555
v 0.818695 0.037016 -0.871480
v 0.879568 0.039482 -0.831110
v 0.867466 0.036633 -0.847753
v 0.876183 0.039439 -0.859949
v 0.928025 0.041437 -0.900685
v 0.903032 0.041180 -0.846601
v 0.896962 0.041098 -0.878418
v 0.846601 0.041180 -0.903029
v 0.900682 0.041437 -0.928026
v 0.878415 0.041098 -0.896960
v 0.847757 0.036633 -0.867463
v 0.831110 0.039481 -0.879566
v 0.859951 0.039438 -0.876180
v 0.871480 0.037016 0.818695
v 0.818694 0.037016 0.871481
v 0.859016 0.041437 0.932556
v 0.932555 0.041437 0.859017
v 0.867463 0.036633 0.847757
v 0.879566 0.039481 0.831110
v 0.876180 0.039438 0.859951
v 0.831110 0.039482 0.879568
v 0.847753 0.036633 0.867466
v 0.859949 0.039439 0.876183
v 0.900685 0.041437 0.928025
v 0.846601 0.041180 0.903032
v 0.878417 0.041098 0.896962
v 0.903028 0.041180 0.846601
v 0.928026 0.041437 0.900682
v 0.896960 0.041098 0.878415
v -0.818694 0.037016 -0.871480
v -0.859017 0.041437 -0.932556
v -0.932556 0.041437 -0.859017
v -0.871480 0.037016 -0.818694
v -0.831111 0.039482 -0.879568
v -0.847754 0.036633 -0.867465
v -0.859950 0.039439 -0.876182
v -0.900685 0.041437 -0.928025
v -0.846601 0.041180 -0.903032
v -0.878418 0.041098 -0.896961
v -0.903029 0.041180 -0.846600
v -0.928026 0.041437 -0.900682
v -0.896961 0.041098 -0.878415
v -0.867464 0.036633 -0.847756
v -0.879566 0.039481 -0.831109
v -0.876180 0.039438 -0.859951
v -0.818694 0.037016 0.871480
v -0.871481 0.037016 0.818694
v -0.932556 0.041437 0.859017
v -0.859017 0.041437 0.932556
v -0.847757 0.036633 0.867464
v -0.831110 0.039481 0.879566
v -0.859951 0.039438 0.876180
v -0.879568 0.039482 0.831111
v -0.867466 0.036633 0.847753
v -0.876183 0.039439 0.859950
v -0.928025 0.041437 0.900685
v -0.903032 0.041180 0.846601
v -0.896961 0.041098 0.878418
v -0.846600 0.041180 0.903029
v -0.900682 0.041437 0.928026
v -0.878415 0.041098 0.896961
vn 0.0298 -0.2876 -0.9573
vn -0.0607 0.5408 -0.8390
vn 0.0607 0.5408 -0.8390
vn -0.0154 0.9331 0.3592
vn 0.0178 0.9379 0.3464
vn 0.0154 0.9331 0.3593
vn 0.0607 0.5407 0.8390
vn -0.0298 -0.2876 0.9573
vn 0.0298 -0.2876 0.9572
vn -0.9573 -0.2876 0.0298
vn -0.8390 0.5408 -0.0607
vn -0.9573 -0.2876 -0.0298
vn -0.3592 0.9331 -0.0154
vn -0.3464 0.9379 0.0177
vn -0.3593 0.9331 0.0154
vn 0.8390 0.5408 -0.0607
vn 0.9573 -0.2876 0.0298
vn 0.9572 -0.2876 -0.0298
vn 0.0000 1.0000 -0.0045
vn 0.0001 1.0000 0.0045
vn -0.0045 1.0000 -0.0000
vn 0.0045 1.0000 -0.0001
vn 0.0045 1.0000 0.0000
vn -0.0045 1.0000 0.0001
vn 0.0041 1.0000 0.0041
vn -0.0041 1.0000 -0.0041
vn -0.0041 1.0000 0.0041
vn 0.0154 0.9331 -0.3592
vn -0.0177 0.9379 -0.3464
vn -0.0154 0.9331 -0.3593
vn 0.3592 0.9331 0.0154
vn 0.3464 0.9379 -0.0177
vn 0.3593 0.9331 -0.0154
vn -0.0000 1.0000 0.0045
vn -0.0001 1.0000 -0.0045
vn 0.5133 -0.8581 -0.0151
vn 0.8869 -0.2823 -0.3656
vn 0.0454 -0.9990 -0.0026
vn 0.5107 -0.8059 -0.2993
vn 0.0026 -0.9989 -0.0455
vn 0.0025 -1.0000 -0.0025
vn 0.2993 -0.8059 -0.5107
vn 0.0459 -0.9979 -0.0459
vn 0.3656 -0.2822 -0.8869
vn 0.0152 -0.8580 -0.5134
vn 0.8869 -0.2822 0.3656
vn 0.5134 -0.8580 0.0152
vn 0.2993 -0.8059 0.5107
vn 0.5107 -0.8059 0.2993
vn 0.0151 -0.8581 0.5133
vn 0.3656 -0.2823 0.8869
vn 0.0026 -0.9990 0.0454
vn 0.0455 -0.9989 0.0026
vn 0.0025 -1.0000 0.0025
vn 0.0459 -0.9979 0.0459
vn -0.3656 -0.2822 0.8869
vn -0.0152 -0.8580 0.5134
vn -0.5107 -0.8059 0.2993
vn -0.2993 -0.8059 0.5107
vn -0.5133 -0.8580 0.0151
vn -0.8869 -0.2823 0.3656
vn -0.0454 -0.9990 0.0026
vn -0.0026 -0.9989 0.0455
vn -0.0025 -1.0000 0.0025
vn -0.0459 -0.9979 0.0459
vn -0.0151 -0.8581 -0.5133
vn -0.3656 -0.2823 -0.8869
vn -0.0298 -0.2876 -0.9573
vn -0.0026 -0.9990 -0.0454
vn -0.2993 -0.8059 -0.5107
vn -0.0455 -0.9989 -0.0026
vn -0.0025 -1.0000 -0.0025
vn -0.5107 -0.8059 -0.2993
vn -0.0459 -0.9979 -0.0459
vn -0.8869 -0.2822 -0.3656
vn -0.5134 -0.8580 -0.0152
vn -0.1636 0.9835 0.0772
vn -0.1845 0.9828 0.0086
vn -0.2914 0.9496 0.1151
vn -0.0772 0.9835 0.1636
vn -0.1151 0.9496 0.2914
vn -0.0086 0.9828 0.1845
vn -0.0353 0.9987 0.0353
vn -0.0397 0.9992 0.0035
vn -0.0035 0.9992 0.0397
vn -0.1636 0.9835 -0.0772
vn -0.2914 0.9496 -0.1151
vn -0.1845 0.9828 -0.0086
vn -0.0353 0.9987 -0.0353
vn -0.0035 0.9992 -0.0397
vn -0.0397 0.9992 -0.0035
vn -0.0086 0.9828 -0.1845
vn -0.0772 0.9835 -0.1636
vn -0.1151 0.9496 -0.2914
vn 0.0772 0.9835 -0.1636
vn 0.1151 0.9496 -0.2914
vn 0.0086 0.9828 -0.1845
vn 0.0353 0.9987 -0.0353
vn 0.0397 0.9992 -0.0035
vn 0.0035 0.9992 -0.0397
vn 0.0041 1.0000 -0.0041
vn 0.1845 0.9828 -0.0086
vn 0.1636 0.9835 -0.0772
vn 0.2914 0.9496 -0.1151
vn 0.0772 0.9835 0.1636
vn 0.0086 0.9828 0.1845
vn 0.1151 0.9496 0.2914
vn 0.1636 0.9835 0.0772
vn 0.2914 0.9496 0.1151
vn 0.1845 0.9828 0.0086
vn 0.0353 0.9987 0.0353
vn 0.0035 0.9992 0.0397
vn 0.0397 0.9992 0.0035
vn 0.0604 0.9784 -0.1977
vn 0.3674 0.5618 -0.7411
vn 0.0057 0.9270 -0.3750
vn 0.0140 0.9991 -0.0398
vn 0.0020 1.0000 -0.0045
vn 0.0014 0.9989 -0.0472
vn 0.0001 1.0000 -0.0045
vn 0.0398 0.9991 -0.0140
vn 0.0472 0.9989 -0.0014
vn 0.0045 1.0000 -0.0020
vn 0.3751 0.9270 -0.0057
vn 0.1977 0.9784 -0.0604
vn 0.7411 0.5618 -0.3674
vn 0.0604 0.9784 0.1977
vn 0.0057 0.9270 0.3751
vn 0.7411 0.5618 0.3674
vn 0.3674 0.5618 0.7411
vn 0.8390 0.5408 0.0607
vn 0.1977 0.9784 0.0604
vn 0.3750 0.9270 0.0057
vn 0.0398 0.9991 0.0140
vn 0.0045 1.0000 0.0020
vn 0.0472 0.9989 0.0014
vn 0.0045 1.0000 0.0001
vn 0.0140 0.9991 0.0398
vn 0.0014 0.9989 0.0472
vn 0.0020 1.0000 0.0045
vn -0.1977 0.9784 -0.0604
vn -0.7411 0.5618 -0.3674
vn -0.3750 0.9270 -0.0057
vn -0.0398 0.9991 -0.0140
vn -0.0045 1.0000 -0.0020
vn -0.0472 0.9989 -0.0014
vn -0.0045 1.0000 -0.0001
vn -0.0140 0.9991 -0.0398
vn -0.0014 0.9989 -0.0472
vn -0.0020 1.0000 -0.0045
vn -0.0057 0.9270 -0.3751
vn -0.0604 0.9784 -0.1977
vn -0.3674 0.5618 -0.7411
vn -0.8390 0.5408 0.0607
vn -0.1977 0.9784 0.0604
vn -0.3751 0.9270 0.0057
vn -0.3674 0.5618 0.7411
vn -0.7411 0.5618 0.3674
vn -0.0607 0.5408 0.8390
vn -0.0604 0.9784 0.1977
vn -0.0057 0.9270 0.3750
vn -0.0140 0.9991 0.0397
vn -0.0020 1.0000 0.0045
vn -0.0014 0.9989 0.0472
vn -0.0001 1.0000 0.0045
vn -0.0398 0.9991 0.0140
vn -0.0472 0.9989 0.0014
vn -0.0045 1.0000 0.0020
vn -0.1661 0.9860 0.0107
vn -0.2498 0.9626 0.1048
vn -0.0376 0.9993 0.0025
vn -0.1036 0.9931 0.0540
vn -0.0265 0.9995 0.0138
vn -0.0016 1.0000 0.0031
vn -0.0031 1.0000 0.0016
vn -0.0138 0.9995 0.0265
vn -0.0025 0.9993 0.0376
vn -0.0540 0.9931 0.1037
vn -0.1049 0.9626 0.2498
vn -0.0107 0.9860 0.1661
vn -0.0178 0.9379 0.3464
vn -0.2498 0.9626 -0.1049
vn -0.1661 0.9860 -0.0107
vn -0.3464 0.9379 -0.0178
vn -0.0540 0.9931 -0.1036
vn -0.1037 0.9931 -0.0540
vn -0.0107 0.9860 -0.1661
vn -0.1048 0.9626 -0.2498
vn -0.0025 0.9993 -0.0376
vn -0.0138 0.9995 -0.0265
vn -0.0031 1.0000 -0.0016
vn -0.0016 1.0000 -0.0031
vn -0.0265 0.9995 -0.0138
vn -0.0376 0.9993 -0.0025
vn 0.0107 0.9860 0.1661
vn 0.1048 0.9626 0.2498
vn 0.0025 0.9993 0.0376
vn 0.0540 0.9931 0.1036
vn 0.0138 0.9995 0.0265
vn 0.0031 1.0000 0.0016
vn 0.0016 1.0000 0.0031
vn 0.0265 0.9995 0.0138
vn 0.0376 0.9993 0.0025
vn 0.1037 0.9931 0.0540
vn 0.2498 0.9626 0.1049
vn 0.1661 0.9860 0.0107
vn 0.3464 0.9379 0.0178
vn 0.1049 0.9626 -0.2498
vn 0.0107 0.9860 -0.1661
vn 0.0178 0.9379 -0.3464
vn 0.1036 0.9931 -0.0540
vn 0.0540 0.9931 -0.1037
vn 0.1661 0.9860 -0.0107
vn 0.2498 0.9626 -0.1048
vn 0.0376 0.9993 -0.0025
vn 0.0265 0.9995 -0.0138
vn 0.0016 1.0000 -0.0031
vn 0.0031 1.0000 -0.0016
vn 0.0138 0.9995 -0.0265
vn 0.0025 0.9993 -0.0376
s 1
f 3//1 132//2 97//3
f 50//4 193//5 85//6
f 113//7 25//8 14//9
f 26//10 129//11 39//12
f 61//13 161//14 49//15
f 100//16 13//17 1//18
f 212//19 116//20 179//19
f 180//21 99//22 162//21
f 195//23 148//24 211//23
f 87//25 62//26 51//27
f 73//28 178//29 63//30
f 86//31 210//32 75//33
f 163//34 131//35 194//34
f 4//36 5//37 1//18
f 8//38 6//39 4//36
f 7//40 8//38 2//41
f 7//40 12//42 9//43
f 10//44 11//45 3//1
f 10//44 6//39 12//42
f 6//39 9//43 12//42
f 16//46 17//47 13//17
f 16//46 21//48 18//49
f 19//50 20//51 14//9
f 23//52 21//48 19//50
f 22//53 23//52 15//54
f 22//53 18//49 24//55
f 18//49 21//48 24//55
f 28//56 29//57 25//8
f 28//56 33//58 30//59
f 31//60 32//61 26//10
f 35//62 33//58 31//60
f 34//63 35//62 27//64
f 34//63 30//59 36//65
f 30//59 33//58 36//65
f 40//66 41//67 37//68
f 44//69 42//70 40//66
f 43//71 44//69 38//72
f 43//71 48//73 45//74
f 46//75 47//76 39//12
f 46//75 42//70 48//73
f 42//70 45//74 48//73
f 49//15 54//77 53//78
f 52//79 57//80 54//77
f 50//4 57//80 56//81
f 55//82 60//83 57//80
f 58//84 59//85 51//27
f 53//78 60//83 58//84
f 54//77 57//80 60//83
f 61//13 66//86 65//87
f 64//88 69//89 66//86
f 67//90 68//91 62//26
f 71//92 69//89 67//90
f 63//30 72//93 71//92
f 70//94 66//86 72//93
f 66//86 69//89 72//93
f 73//28 78//95 77//96
f 76//97 81//98 78//95
f 79//99 80//100 74//101
f 83//102 81//98 79//99
f 75//33 84//103 83//102
f 82//104 78//95 84//103
f 78//95 81//98 84//103
f 85//6 90//105 89//106
f 88//107 93//108 90//105
f 86//31 93//108 92//109
f 91//110 96//111 93//108
f 94//112 95//113 87//25
f 89//106 96//111 94//112
f 90//105 93//108 96//111
f 97//3 103//114 102//115
f 101//116 106//117 103//114
f 104//118 105//119 98//120
f 104//118 109//121 106//117
f 107//122 108//123 99//22
f 111//124 109//121 107//122
f 100//16 112//125 111//124
f 102//115 112//125 110//126
f 106//117 112//125 103//114
f 113//7 119//127 118//128
f 121//129 119//127 117//130
f 114//131 122//132 121//129
f 120//133 125//134 122//132
f 123//135 124//136 115//137
f 123//135 128//138 125//134
f 126//139 127//140 116//20
f 118//128 128//138 126//139
f 119//127 125//134 128//138
f 129//11 135//141 134//142
f 133//143 138//144 135//141
f 136//145 137//146 130//147
f 136//145 141//148 138//144
f 139//149 140//150 131//35
f 143//151 141//148 139//149
f 132//2 144//152 143//151
f 134//142 144//152 142//153
f 138//144 144//152 135//141
f 145//154 151//155 150//156
f 153//157 151//155 149//158
f 146//159 154//160 153//157
f 152//161 157//162 154//160
f 155//163 156//164 147//165
f 155//163 160//166 157//162
f 158//167 159//168 148//24
f 150//156 160//166 158//167
f 151//155 157//162 160//166
f 165//169 166//170 161//14
f 169//171 167//172 165//169
f 162//21 170//173 169//171
f 172//174 170//173 168//175
f 163//34 173//176 172//174
f 171//177 176//178 173//176
f 174//179 175//180 164//181
f 174//179 167//172 176//178
f 167//172 173//176 176//178
f 181//182 182//183 177//184
f 181//182 186//185 183//186
f 184//187 185//188 178//29
f 188//189 186//185 184//187
f 179//19 189//190 188//189
f 191//191 189//190 187//192
f 180//21 192//193 191//191
f 190//194 183//186 192//193
f 186//185 192//193 183//186
f 197//195 198//196 193//5
f 201//197 199//198 197//195
f 194//34 202//199 201//197
f 204//200 202//199 200//201
f 195//23 205//202 204//200
f 203//203 208//204 205//202
f 206//205 207//206 196//207
f 206//205 199//198 208//204
f 202//199 208//204 199//198
f 213//208 214//209 209//210
f 213//208 218//211 215//212
f 216//213 217//214 210//32
f 220//215 218//211 216//213
f 211//23 221//216 220//215
f 223//217 221//216 219//218
f 212//19 224//219 223//217
f 222//220 215//212 224//219
f 218//211 224//219 215//212
f 13//17 4//36 1//18
f 4//36 22//53 8//38
f 8//38 15//54 2//41
f 38//72 7//40 2//41
f 44//69 11//45 7//40
f 40//66 3//1 11//45
f 3//1 102//115 10//44
f 10//44 110//126 5//37
f 110//126 1//18 5//37
f 25//8 19//50 14//9
f 29//57 23//52 19//50
f 34//63 15//54 23//52
f 13//17 121//129 16//46
f 16//46 117//130 20//51
f 117//130 14//9 20//51
f 39//12 31//60 26//10
f 47//76 35//62 31//60
f 43//71 27//64 35//62
f 25//8 153//157 28//56
f 28//56 149//158 32//61
f 149//158 26//10 32//61
f 39//12 134//142 46//75
f 46//75 142//153 41//67
f 142//153 37//68 41//67
f 99//22 124//136 107//122
f 107//122 120//133 111//124
f 111//124 114//131 100//16
f 97//3 143//151 101//116
f 101//116 139//149 105//119
f 105//119 131//35 98//120
f 116//20 156//164 126//139
f 126//139 152//161 118//128
f 118//128 146//159 113//7
f 148//24 137//146 158//167
f 158//167 133//143 150//156
f 150//156 129//11 145//154
f 177//184 165//169 161//14
f 182//183 169//171 165//169
f 190//194 162//21 169//171
f 194//34 171//177 163//34
f 201//197 175//180 171//177
f 197//195 164//181 175//180
f 209//210 184//187 178//29
f 214//209 188//189 184//187
f 222//220 179//19 188//189
f 196//207 216//213 210//32
f 207//206 220//215 216//213
f 203//203 211//23 220//215
f 98//120 172//174 104//118
f 104//118 168//175 108//123
f 168//175 99//22 108//123
f 116//20 187//192 179//19
f 187//192 123//135 191//191
f 191//191 115//137 180//21
f 130//147 204//200 136//145
f 136//145 200//201 140//150
f 200//201 131//35 140//150
f 148//24 219//218 211//23
f 219//218 155//163 223//217
f 223//217 147//165 212//19
f 51//27 68//91 58//84
f 68//91 53//78 58//84
f 64//88 49//15 53//78
f 85//6 55//82 50//4
f 55//82 94//112 59//85
f 59//85 87//25 51//27
f 74//101 67//90 62//26
f 80//100 71//92 67//90
f 71//92 73//28 63//30
f 74//101 95//113 79//99
f 79//99 91//110 83//102
f 91//110 75//33 83//102
f 164//181 56//81 174//179
f 174//179 52//79 166//170
f 52//79 161//14 166//170
f 178//29 70//94 63//30
f 70//94 181//182 65//87
f 65//87 177//184 61//13
f 196//207 92//109 206//205
f 206//205 88//107 198//196
f 88//107 193//5 198//196
f 210//32 82//104 75//33
f 82//104 213//208 77//96
f 77//96 209//210 73//28
f 2//41 27//64 38//72
f 3//1 37//68 132//2
f 50//4 164//181 193//5
f 113//7 146//159 25//8
f 26//10 145//154 129//11
f 61//13 177//184 161//14
f 100//16 114//131 13//17
f 212//19 147//165 116//20
f 180//21 115//137 99//22
f 195//23 130//147 148//24
f 87//25 74//101 62//26
f 73//28 209//210 178//29
f 86//31 196//207 210//32
f 163//34 98//120 131//35
f 4//36 6//39 5//37
f 8//38 9//43 6//39
f 7//40 9//43 8//38
f 7//40 11//45 12//42
f 10//44 12//42 11//45
f 10//44 5//37 6//39
f 16//46 18//49 17//47
f 16//46 20//51 21//48
f 19//50 21//48 20//51
f 23//52 24//55 21//48
f 22//53 24//55 23//52
f 22//53 17//47 18//49
f 28//56 30//59 29//57
f 28//56 32//61 33//58
f 31//60 33//58 32//61
f 35//62 36//65 33//58
f 34//63 36//65 35//62
f 34//63 29//57 30//59
f 40//66 42//70 41//67
f 44//69 45//74 42//70
f 43//71 45//74 44//69
f 43//71 47//76 48//73
f 46//75 48//73 47//76
f 46//75 41//67 42//70
f 49//15 52//79 54//77
f 52//79 56//81 57//80
f 50//4 55//82 57//80
f 55//82 59//85 60//83
f 58//84 60//83 59//85
f 53//78 54//77 60//83
f 61//13 64//88 66//86
f 64//88 68//91 69//89
f 67//90 69//89 68//91
f 71//92 72//93 69//89
f 63//30 70//94 72//93
f 70//94 65//87 66//86
f 73//28 76//97 78//95
f 76//97 80//100 81//98
f 79//99 81//98 80//100
f 83//102 84//103 81//98
f 75//33 82//104 84//103
f 82//104 77//96 78//95
f 85//6 88//107 90//105
f 88//107 92//109 93//108
f 86//31 91//110 93//108
f 91//110 95//113 96//111
f 94//112 96//111 95//113
f 89//106 90//105 96//111
f 97//3 101//116 103//114
f 101//116 105//119 106//117
f 104//118 106//117 105//119
f 104//118 108//123 109//121
f 107//122 109//121 108//123
f 111//124 112//125 109//121
f 100//16 110//126 112//125
f 102//115 103//114 112//125
f 106//117 109//121 112//125
f 113//7 117//130 119//127
f 121//129 122//132 119//127
f 114//131 120//133 122//132
f 120//133 124//136 125//134
f 123//135 125//134 124//136
f 123//135 127//140 128//138
f 126//139 128//138 127//140
f 118//128 119//127 128//138
f 119//127 122//132 125//134
f 129//11 133//143 135//141
f 133//143 137//146 138//144
f 136//145 138//144 137//146
f 136//145 140//150 141//148
f 139//149 141//148 140//150
f 143//151 144//152 141//148
f 132//2 142//153 144//152
f 134//142 135//141 144//152
f 138//144 141//148 144//152
f 145//154 149//158 151//155
f 153//157 154//160 151//155
f 146//159 152//161 154//160
f 152//161 156//164 157//162
f 155//163 157//162 156//164
f 155//163 159//168 160//166
f 158//167 160//166 159//168
f 150//156 151//155 160//166
f 151//155 154//160 157//162
f 165//169 167//172 166//170
f 169//171 170//173 167//172
f 162//21 168//175 170//173
f 172//174 173//176 170//173
f 163//34 171//177 173//176
f 171//177 175//180 176//178
f 174//179 176//178 175//180
f 174//179 166//170 167//172
f 167//172 170//173 173//176
f 181//182 183//186 182//183
f 181//182 185//188 186//185
f 184//187 186//185 185//188
f 188//189 189//190 186//185
f 179//19 187//192 189//190
f 191//191 192//193 189//190
f 180//21 190//194 192//193
f 190//194 182//183 183//186
f 186//185 189//190 192//193
f 197//195 199//198 198//196
f 201//197 202//199 199//198
f 194//34 200//201 202//199
f 204//200 205//202 202//199
f 195//23 203//203 205//202
f 203//203 207//206 208//204
f 206//205 208//204 207//206
f 206//205 198//196 199//198
f 202//199 205//202 208//204
f 213//208 215//212 214//209
f 213//208 217//214 218//211
f 216//213 218//211 217//214
f 220//215 221//216 218//211
f 211//23 219//218 221//216
f 223//217 224//219 221//216
f 212//19 222//220 224//219
f 222//220 214//209 215//212
f 218//211 221//216 224//219
f 13//17 17//47 4//36
f 4//36 17//47 22//53
f 8//38 22//53 15//54
f 38//72 44//69 7//40
f 44//69 40//66 11//45
f 40//66 37//68 3//1
f 3//1 97//3 102//115
f 10//44 102//115 110//126
f 110//126 100//16 1//18
f 25//8 29//57 19//50
f 29//57 34//63 23//52
f 34//63 27//64 15//54
f 13//17 114//131 121//129
f 16//46 121//129 117//130
f 117//130 113//7 14//9
f 39//12 47//76 31//60
f 47//76 43//71 35//62
f 43//71 38//72 27//64
f 25//8 146//159 153//157
f 28//56 153//157 149//158
f 149//158 145//154 26//10
f 39//12 129//11 134//142
f 46//75 134//142 142//153
f 142//153 132//2 37//68
f 99//22 115//137 124//136
f 107//122 124//136 120//133
f 111//124 120//133 114//131
f 97//3 132//2 143//151
f 101//116 143//151 139//149
f 105//119 139//149 131//35
f 116//20 147//165 156//164
f 126//139 156//164 152//161
f 118//128 152//161 146//159
f 148//24 130//147 137//146
f 158//167 137//146 133//143
f 150//156 133//143 129//11
f 177//184 182//183 165//169
f 182//183 190//194 169//171
f 190//194 180//21 162//21
f 194//34 201//197 171//177
f 201//197 197//195 175//180
f 197//195 193//5 164//181
f 209//210 214//209 184//187
f 214//209 222//220 188//189
f 222//220 212//19 179//19
f 196//207 207//206 216//213
f 207//206 203//203 220//215
f 203//203 195//23 211//23
f 98//120 163//34 172//174
f 104//118 172//174 168//175
f 168//175 162//21 99//22
f 116//20 127//140 187//192
f 187//192 127//140 123//135
f 191//191 123//135 115//137
f 130//147 195//23 204//200
f 136//145 204//200 200//201
f 200//201 194//34 131//35
f 148//24 159//168 219//218
f 219//218 159//168 155//163
f 223//217 155//163 147//165
f 51//27 62//26 68//91
f 68//91 64//88 53//78
f 64//88 61//13 49//15
f 85//6 89//106 55//82
f 55//82 89//106 94//112
f 59//85 94//112 87//25
f 74//101 80//100 67//90
f 80//100 76//97 71//92
f 71//92 76//97 73//28
f 74//101 87//25 95//113
f 79//99 95//113 91//110
f 91//110 86//31 75//33
f 164//181 50//4 56//81
f 174//179 56//81 52//79
f 52//79 49//15 161//14
f 178//29 185//188 70//94
f 70//94 185//188 181//182
f 65//87 181//182 177//184
f 196//207 86//31 92//109
f 206//205 92//109 88//107
f 88//107 85//6 193//5
f 210//32 217//214 82//104
f 82//104 217//214 213//208
f 77//96 213//208 209//210
f 2//41 15//54 27//64
